<svg width="120" height="109" viewBox="0 0 120 109" fill="none" xmlns="http://www.w3.org/2000/svg">
<g clip-path="url(#clip0)">
<path d="M59.9993 38.8477H59.9994C62.1856 38.8477 64.3504 39.2783 66.3702 40.1149C68.39 40.9515 70.2252 42.1778 71.7711 43.7237C73.317 45.2696 74.5433 47.1048 75.3799 49.1246C76.2165 51.1444 76.6471 53.3092 76.6471 55.4954V95.3822H43.3516V55.4954C43.3516 53.3092 43.7822 51.1444 44.6188 49.1246C45.4554 47.1048 46.6817 45.2696 48.2276 43.7237C49.7735 42.1778 51.6087 40.9515 53.6285 40.1149C55.6483 39.2783 57.8131 38.8477 59.9993 38.8477Z" fill="#E6E6E6"/>
<path d="M54.2242 58.8633H51.2344V68.784H54.2242V58.8633Z" fill="white"/>
<path d="M64.9598 69.5996H55.0391V78.569H64.9598V69.5996Z" fill="white"/>
<path d="M64.9598 58.8633H55.0391V68.784H64.9598V58.8633Z" fill="white"/>
<path d="M65.7773 58.0475H68.7672V57.8436C68.7682 56.5953 68.502 55.3612 67.9863 54.2244C67.4705 53.0875 66.7174 52.0743 65.7773 51.2529V58.0475Z" fill="white"/>
<path d="M55.0391 58.0476H64.9598V50.6174C63.501 49.6126 61.7708 49.0757 59.9994 49.0781C58.228 49.0757 56.4979 49.6126 55.0391 50.6174V58.0476Z" fill="white"/>
<path d="M54.2242 69.5996H51.2344V76.3946C51.2344 76.9712 51.4635 77.5243 51.8712 77.9321C52.279 78.3399 52.8321 78.569 53.4088 78.569H54.2242V69.5996Z" fill="white"/>
<path d="M65.7773 69.5996V78.569H66.5927C67.1694 78.569 67.7225 78.3399 68.1303 77.9321C68.538 77.5243 68.7671 76.9712 68.7671 76.3946V69.5996H65.7773Z" fill="white"/>
<path d="M54.2242 58.0475V51.2529C53.2842 52.0743 52.531 53.0875 52.0153 54.2244C51.4996 55.3612 51.2333 56.5953 51.2344 57.8436V58.0475H54.2242Z" fill="white"/>
<path d="M68.7671 58.8633H65.7773V68.784H68.7671V58.8633Z" fill="white"/>
<path d="M74.2706 72.0451C75.2463 72.0451 76.0373 71.2541 76.0373 70.2784C76.0373 69.3027 75.2463 68.5117 74.2706 68.5117C73.2949 68.5117 72.5039 69.3027 72.5039 70.2784C72.5039 71.2541 73.2949 72.0451 74.2706 72.0451Z" fill="#3F3D56"/>
<path d="M18.5732 53.3232H16.2266V61.1098H18.5732V53.3232Z" fill="#F2F2F2"/>
<path d="M26.9975 53.3232H19.2109V61.1098H26.9975V53.3232Z" fill="#F2F2F2"/>
<path d="M29.9833 53.3232H27.6367V61.1098H29.9833V53.3232Z" fill="#F2F2F2"/>
<path d="M27.6367 52.6835H29.9833V52.5234C29.9842 51.5436 29.7752 50.575 29.3704 49.6828C28.9657 48.7905 28.3745 47.9953 27.6367 47.3506V52.6835Z" fill="#F2F2F2"/>
<path d="M26.9975 61.749H19.2109V68.7889H26.9975V61.749Z" fill="#F2F2F2"/>
<path d="M18.5732 61.749H16.2266V67.0822C16.2266 67.5348 16.4064 67.9689 16.7264 68.289C17.0465 68.609 17.4806 68.7888 17.9332 68.7888H18.5732L18.5732 61.749Z" fill="#F2F2F2"/>
<path d="M27.6367 61.749V68.7889H28.2767C28.5008 68.7889 28.7228 68.7447 28.9298 68.659C29.1369 68.5732 29.325 68.4475 29.4835 68.289C29.642 68.1305 29.7677 67.9424 29.8534 67.7353C29.9392 67.5283 29.9833 67.3063 29.9833 67.0822V61.749H27.6367Z" fill="#F2F2F2"/>
<path d="M18.5732 52.6835V47.3506C17.8354 47.9953 17.2443 48.7905 16.8395 49.6828C16.4347 50.5751 16.2257 51.5437 16.2266 52.5234V52.6835H18.5732Z" fill="#F2F2F2"/>
<path d="M19.2109 52.6825H26.9975V46.8507C25.8525 46.0621 24.4945 45.6407 23.1042 45.6426C21.7139 45.6407 20.3559 46.0621 19.2109 46.8507V52.6825Z" fill="#F2F2F2"/>
<path d="M33.0502 69.6403H13.2105C13.0832 69.6402 12.9612 69.5896 12.8712 69.4996C12.7812 69.4096 12.7306 69.2876 12.7305 69.1603V67.8804C12.7306 67.7531 12.7812 67.6311 12.8712 67.5411C12.9612 67.4511 13.0832 67.4005 13.2105 67.4004H33.0502C33.1774 67.4005 33.2994 67.4511 33.3894 67.5411C33.4794 67.6311 33.53 67.7531 33.5301 67.8804V69.1603C33.53 69.2876 33.4794 69.4096 33.3894 69.4996C33.2994 69.5896 33.1774 69.6402 33.0502 69.6403Z" fill="#E6E6E6"/>
<path d="M92.3662 53.3232H90.0195V61.1098H92.3662V53.3232Z" fill="#F2F2F2"/>
<path d="M100.79 53.3232H93.0039V61.1098H100.79V53.3232Z" fill="#F2F2F2"/>
<path d="M103.78 53.3232H101.434V61.1098H103.78V53.3232Z" fill="#F2F2F2"/>
<path d="M101.434 52.6835H103.78V52.5234C103.781 51.5436 103.572 50.575 103.167 49.6828C102.763 48.7905 102.171 47.9953 101.434 47.3506V52.6835Z" fill="#F2F2F2"/>
<path d="M100.79 61.749H93.0039V68.7889H100.79V61.749Z" fill="#F2F2F2"/>
<path d="M92.3662 61.749H90.0195V67.0822C90.0195 67.5348 90.1993 67.9689 90.5194 68.289C90.8395 68.609 91.2735 68.7888 91.7262 68.7888H92.3662L92.3662 61.749Z" fill="#F2F2F2"/>
<path d="M101.434 61.749V68.7889H102.074C102.298 68.7889 102.52 68.7447 102.727 68.659C102.934 68.5732 103.122 68.4475 103.28 68.289C103.439 68.1305 103.565 67.9424 103.65 67.7353C103.736 67.5283 103.78 67.3063 103.78 67.0822V61.749H101.434Z" fill="#F2F2F2"/>
<path d="M92.3662 52.6835V47.3506C91.6284 47.9953 91.0372 48.7905 90.6325 49.6828C90.2277 50.5751 90.0187 51.5437 90.0195 52.5234V52.6835H92.3662Z" fill="#F2F2F2"/>
<path d="M93.0039 52.6825H100.79V46.8507C99.6455 46.0621 98.2875 45.6407 96.8972 45.6426C95.5069 45.6407 94.1489 46.0621 93.0039 46.8507V52.6825Z" fill="#F2F2F2"/>
<path d="M106.843 69.6403H87.0034C86.8762 69.6402 86.7542 69.5896 86.6642 69.4996C86.5742 69.4096 86.5236 69.2876 86.5234 69.1603V67.8804C86.5236 67.7531 86.5742 67.6311 86.6642 67.5411C86.7542 67.4511 86.8762 67.4005 87.0034 67.4004H106.843C106.97 67.4005 107.092 67.4511 107.182 67.5411C107.272 67.6311 107.323 67.7531 107.323 67.8804V69.1603C107.323 69.2876 107.272 69.4096 107.182 69.4996C107.092 69.5896 106.97 69.6402 106.843 69.6403Z" fill="#E6E6E6"/>
<path d="M112.729 95.5187H7.26987C6.08086 95.5173 4.94094 95.0444 4.10018 94.2037C3.25943 93.3629 2.7865 92.223 2.78516 91.034V22.6761C2.7865 21.4871 3.25943 20.3472 4.10018 19.5064C4.94094 18.6657 6.08086 18.1927 7.26987 18.1914H112.729C113.918 18.1927 115.057 18.6657 115.898 19.5064C116.739 20.3472 117.212 21.4871 117.213 22.6761V91.034C117.212 92.223 116.739 93.3629 115.898 94.2037C115.057 95.0444 113.918 95.5173 112.729 95.5187ZM7.26987 18.4632C6.15292 18.4645 5.08209 18.9087 4.29229 19.6985C3.50249 20.4883 3.05822 21.5592 3.05696 22.6761V91.034C3.05822 92.1509 3.50249 93.2218 4.29229 94.0116C5.08209 94.8014 6.15292 95.2456 7.26987 95.2469H112.729C113.845 95.2456 114.916 94.8014 115.706 94.0116C116.496 93.2218 116.94 92.1509 116.941 91.034V22.6761C116.94 21.5592 116.496 20.4883 115.706 19.6985C114.916 18.9087 113.845 18.4645 112.729 18.4632H7.26987Z" fill="#CCCCCC"/>
<path d="M4.49128 27.1292C3.36231 27.1283 2.27501 26.7026 1.44555 25.9367C0.616098 25.1709 0.105236 24.1209 0.0145368 22.9956C-0.0761623 21.8702 0.259944 20.752 0.956033 19.8632C1.65212 18.9743 2.65721 18.38 3.77147 18.1983L58.8865 0.0894683C59.6026 -0.0289254 60.3333 -0.029822 61.0498 0.086814L116.238 18.2013C117.413 18.3952 118.463 19.0477 119.158 20.0154C119.852 20.9831 120.134 22.1869 119.941 23.3623C119.748 24.5376 119.097 25.5884 118.13 26.2837C117.163 26.979 115.959 27.262 114.784 27.0705C114.189 26.9855 60.4887 19.3178 59.9989 19.2977C59.5111 19.3178 5.75811 26.993 5.21521 27.0706C4.97587 27.1096 4.73377 27.1292 4.49128 27.1292Z" fill="#CCCCCC"/>
<path d="M83.6372 84.7214C83.7509 84.5738 83.8309 84.4031 83.8714 84.2213C83.912 84.0395 83.9122 83.8509 83.8721 83.669C83.8319 83.4871 83.7523 83.3162 83.639 83.1684C83.5256 83.0205 83.3812 82.8993 83.216 82.8133L83.4679 79.9122L81.7422 79.3291L81.444 83.4311C81.3179 83.7183 81.3016 84.0418 81.3981 84.3402C81.4945 84.6387 81.6971 84.8913 81.9675 85.0504C82.2378 85.2094 82.5571 85.2638 82.8649 85.2032C83.1726 85.1425 83.4474 84.9711 83.6372 84.7214Z" fill="#FFB8B8"/>
<path d="M92.2495 107.277L90.6958 107.277L89.957 101.284L92.2501 101.284L92.2495 107.277Z" fill="#FFB8B8"/>
<path d="M89.5858 106.833H92.5821V108.72H87.6992C87.6992 108.472 87.748 108.227 87.8428 107.998C87.9376 107.769 88.0766 107.561 88.2518 107.386C88.427 107.21 88.6349 107.071 88.8638 106.977C89.0927 106.882 89.338 106.833 89.5858 106.833Z" fill="#2F2E41"/>
<path d="M88.7232 103.301L87.2144 103.672L85.0664 98.0286L87.2933 97.4814L88.7232 103.301Z" fill="#FFB8B8"/>
<path d="M86.0313 103.505L88.941 102.79L89.3912 104.622L84.6494 105.787C84.5903 105.547 84.5791 105.297 84.6166 105.052C84.654 104.807 84.7394 104.572 84.8677 104.36C84.996 104.148 85.1648 103.963 85.3644 103.817C85.5641 103.67 85.7907 103.564 86.0313 103.505Z" fill="#2F2E41"/>
<path d="M90.4293 105.367C90.2875 105.367 90.1507 105.315 90.0454 105.22C89.94 105.125 89.8736 104.994 89.8591 104.853L88.0713 88.1984L86.5156 93.2914L88.719 101.246C88.7569 101.382 88.7431 101.528 88.6803 101.655C88.6174 101.782 88.51 101.881 88.3785 101.933L86.6268 102.634C86.5547 102.663 86.4775 102.677 86.3998 102.675C86.3222 102.673 86.2457 102.655 86.175 102.623C86.1043 102.591 86.0409 102.545 85.9885 102.487C85.9362 102.43 85.896 102.363 85.8705 102.289L83.1701 94.5417C82.8744 93.6958 82.7436 92.8011 82.7847 91.906L83.1617 83.5449L93.0882 83.9652L92.9332 104.651C92.9314 104.795 92.8758 104.933 92.7775 105.039C92.6792 105.144 92.5451 105.209 92.4016 105.22L90.4739 105.365C90.459 105.366 90.4441 105.367 90.4293 105.367Z" fill="#2F2E41"/>
<path d="M88.7871 65.041C90.6305 65.041 92.1249 63.5465 92.1249 61.7031C92.1249 59.8596 90.6305 58.3652 88.7871 58.3652C86.9436 58.3652 85.4492 59.8596 85.4492 61.7031C85.4492 63.5465 86.9436 65.041 88.7871 65.041Z" fill="#FFB8B8"/>
<path d="M91.2435 84.5088C90.3644 84.5088 89.2723 84.4369 88.1426 84.3625C86.5987 84.261 85.0023 84.156 83.8108 84.2249C83.6499 84.2409 83.4876 84.2154 83.3393 84.1508C83.1911 84.0862 83.0618 83.9848 82.9639 83.8561C81.7354 82.2832 83.6302 76.1495 83.7115 75.8892L85.2535 69.0306L85.3197 69.0455L85.2535 69.0306C85.5926 67.5221 86.6765 66.4094 88.082 66.1266C89.3974 65.8623 90.6699 66.3891 91.486 67.5366C91.5293 67.5974 91.5726 67.6599 91.6158 67.724C94.2729 71.6592 92.7701 81.4358 92.6693 82.0668C92.8097 82.2349 93.5687 83.1855 93.36 83.8458C93.2752 84.1144 93.0446 84.2975 92.6748 84.39C92.2037 84.4833 91.7235 84.5231 91.2435 84.5088Z" fill="#CCCCCC"/>
<path d="M83.8648 84.5116C83.5624 84.5116 83.1546 84.4001 82.6047 84.1712C82.3683 84.0729 81.6492 83.7736 82.5222 76.1433C82.9511 72.3952 83.5655 68.6732 83.5717 68.6361L83.5776 68.6002L83.6107 68.5852C83.6265 68.5781 85.1955 67.8587 85.4684 66.9346C85.4779 66.9025 85.4885 66.8715 85.5002 66.8416C85.5752 66.6361 85.7267 66.4675 85.9231 66.3711C86.1194 66.2747 86.3454 66.2578 86.5539 66.324C86.7741 66.3766 86.9661 66.511 87.0909 66.7C87.2156 66.889 87.2638 67.1184 87.2256 67.3416C87.1305 67.9444 86.9478 68.5301 86.6833 69.08C85.9449 70.6034 85.4447 74.6421 85.4398 74.6827C85.4116 75.0276 84.7414 83.1998 84.6123 83.82C84.5673 84.0366 84.4843 84.3017 84.2408 84.4302C84.124 84.4878 83.9949 84.5157 83.8648 84.5116Z" fill="#2F2E41"/>
<path d="M87.5087 84.1986C87.4477 84.1986 87.3884 84.1783 87.3403 84.1408C86.3583 83.3946 87.9475 74.349 88.8902 71.2281C89.0789 70.6032 89.247 70.068 89.3898 69.6372C89.65 68.8644 89.8316 68.0674 89.9319 67.2581C89.9838 66.8197 90.0965 66.5694 90.2767 66.4926C90.4019 66.4393 90.5491 66.4755 90.7143 66.6004C91.5848 66.5576 92.4309 66.9132 93.2151 67.3046L93.9206 67.6567L94.7124 81.6747C94.69 82.5692 92.9265 83.2008 92.1569 83.2412C90.9219 83.3059 88.7039 83.507 87.7266 84.1258C87.6624 84.1704 87.5868 84.1957 87.5087 84.1986Z" fill="#2F2E41"/>
<path d="M83.0996 81.5686C83.088 81.5686 83.0763 81.5683 83.0645 81.5676L81.4653 81.4692C81.3857 81.4643 81.308 81.4429 81.2371 81.4063C81.1662 81.3697 81.1037 81.3188 81.0535 81.2568C81.0034 81.1947 80.9667 81.1229 80.9458 81.0459C80.9249 80.9689 80.9203 80.8885 80.9322 80.8096L81.6559 76.0152L83.0182 69.2885C83.0518 69.1228 83.1198 68.966 83.2178 68.8282C83.3159 68.6905 83.4417 68.5749 83.5873 68.4889C83.7329 68.403 83.8949 68.3485 84.0629 68.3292C84.2308 68.3099 84.401 68.326 84.5623 68.3767C84.8381 68.4647 85.0733 68.6484 85.2255 68.8946C85.3777 69.1408 85.4369 69.4333 85.3923 69.7193L84.31 76.4595L83.6693 81.0729C83.6496 81.2101 83.5812 81.3357 83.4766 81.4267C83.3721 81.5177 83.2382 81.5681 83.0996 81.5686Z" fill="#2F2E41"/>
<path d="M89.3984 64.9586C89.9008 64.9695 90.3997 64.8739 90.8625 64.6782C91.3253 64.4824 91.7415 64.191 92.0836 63.823C92.4257 63.455 92.6861 63.0187 92.8476 62.5429C93.0091 62.0671 93.0681 61.5625 93.0207 61.0623C92.9733 60.562 92.8206 60.0775 92.5726 59.6405C92.3246 59.2035 91.9869 58.8239 91.5818 58.5267C91.1766 58.2295 90.7132 58.0214 90.2219 57.916C89.7305 57.8107 89.2225 57.8105 88.7311 57.9155C87.9971 57.4699 87.1437 57.17 86.2883 57.2462C85.433 57.3225 84.5871 57.8303 84.2672 58.6273C83.9474 59.4242 84.291 60.4747 85.0863 60.7986C85.5962 61.0062 86.172 60.9055 86.7161 60.8218C87.2602 60.7381 87.8538 60.6834 88.3274 60.9642C88.801 61.2449 89.0138 61.9978 88.5897 62.3488C88.3649 62.5422 88.2043 62.7996 88.1295 63.0866C88.0546 63.3735 88.0689 63.6765 88.1706 63.9551C88.3837 64.5064 88.9655 64.9493 89.3984 64.9586Z" fill="#2F2E41"/>
<path d="M81.9981 65.2568C81.1281 65.2574 80.294 65.6034 79.6791 66.2187C79.0642 66.834 78.7188 67.6683 78.7188 68.5382C78.7187 69.4081 79.0642 70.2425 79.6791 70.8578C80.294 71.4731 81.1281 71.8191 81.998 71.8196H81.9981C82.868 71.8191 83.7021 71.4731 84.317 70.8578C84.9319 70.2425 85.2774 69.4082 85.2774 68.5382C85.2774 67.6683 84.9319 66.834 84.317 66.2187C83.7021 65.6034 82.868 65.2574 81.9981 65.2568Z" fill="#00BCD4"/>
<path d="M81.6861 69.9008C81.5997 69.9009 81.5156 69.873 81.4465 69.8212L81.4422 69.8179L80.5398 69.1276C80.498 69.0956 80.463 69.0556 80.4366 69.01C80.4103 68.9645 80.3932 68.9141 80.3863 68.8619C80.3794 68.8097 80.3828 68.7566 80.3964 68.7058C80.41 68.6549 80.4335 68.6072 80.4656 68.5654C80.4976 68.5236 80.5376 68.4885 80.5832 68.4622C80.6288 68.4358 80.6791 68.4187 80.7313 68.4118C80.7835 68.4049 80.8366 68.4084 80.8874 68.422C80.9383 68.4356 80.986 68.4591 81.0278 68.4911L81.6123 68.9394L82.9935 67.1374C83.0255 67.0957 83.0655 67.0606 83.111 67.0343C83.1566 67.0079 83.2069 66.9908 83.2591 66.9839C83.3113 66.977 83.3643 66.9805 83.4152 66.9941C83.4661 67.0077 83.5137 67.0312 83.5555 67.0632L83.5556 67.0633L83.547 67.0752L83.5559 67.0633C83.6401 67.1281 83.6953 67.2236 83.7092 67.329C83.7231 67.4344 83.6946 67.541 83.63 67.6254L82.0054 69.7439C81.9678 69.7927 81.9195 69.8322 81.8642 69.8594C81.8089 69.8865 81.7481 69.9005 81.6865 69.9003L81.6861 69.9008Z" fill="white"/>
<path d="M88.9096 74.3555H77.3928C77.2397 74.3554 77.088 74.3856 76.9465 74.4442C76.8049 74.5028 76.6764 74.5887 76.5681 74.697C76.4597 74.8053 76.3738 74.9338 76.3152 75.0754C76.2567 75.2169 76.2265 75.3686 76.2266 75.5217V87.0385C76.2265 87.1917 76.2567 87.3434 76.3152 87.4849C76.3738 87.6264 76.4597 87.755 76.5681 87.8633C76.6764 87.9716 76.8049 88.0575 76.9465 88.1161C77.088 88.1747 77.2397 88.2048 77.3928 88.2048H88.9096C89.0628 88.2048 89.2145 88.1747 89.356 88.1161C89.4975 88.0575 89.6261 87.9716 89.7344 87.8633C89.8427 87.755 89.9286 87.6264 89.9872 87.4849C90.0458 87.3434 90.0759 87.1917 90.0759 87.0385V75.5217C90.0759 75.3686 90.0458 75.2169 89.9872 75.0754C89.9286 74.9338 89.8427 74.8053 89.7344 74.697C89.6261 74.5887 89.4975 74.5028 89.356 74.4442C89.2145 74.3856 89.0628 74.3554 88.9096 74.3555Z" fill="#00BCD4"/>
<path d="M86.3157 82.9678L80.8781 84.0267C80.5556 84.0892 80.2215 84.0211 79.949 83.8375C79.6766 83.6539 79.4881 83.3697 79.425 83.0473L79.007 80.9009C78.9446 80.5783 79.0126 80.2442 79.1962 79.9718C79.3798 79.6993 79.664 79.5109 79.9864 79.4477L85.424 78.3888C85.7466 78.3264 86.0807 78.3944 86.3531 78.5781C86.6256 78.7617 86.814 79.0459 86.8772 79.3683L87.2952 81.5147C87.3576 81.8372 87.2896 82.1714 87.1059 82.4438C86.9223 82.7162 86.6381 82.9047 86.3157 82.9678Z" fill="white"/>
<path d="M85.2275 80.4313L81.0778 81.2394C81.0019 81.2542 80.9232 81.2382 80.8591 81.195C80.795 81.1518 80.7506 81.0849 80.7358 81.009C80.7211 80.9331 80.737 80.8544 80.7803 80.7903C80.8235 80.7262 80.8904 80.6818 80.9663 80.667L85.116 79.8589C85.1536 79.8516 85.1923 79.8517 85.2299 79.8593C85.2674 79.8669 85.3031 79.8818 85.3349 79.9032C85.3667 79.9246 85.3939 79.9521 85.4151 79.984C85.4362 80.0159 85.4509 80.0517 85.4582 80.0893C85.4655 80.127 85.4654 80.1656 85.4577 80.2032C85.4501 80.2407 85.4352 80.2764 85.4137 80.3081C85.3923 80.3399 85.3648 80.3671 85.3329 80.3883C85.3009 80.4094 85.2651 80.424 85.2275 80.4313Z" fill="#00BCD4"/>
<path d="M84.4234 81.6285L82.277 82.0465C82.2394 82.0539 82.2007 82.0537 82.1632 82.0461C82.1257 82.0385 82.09 82.0235 82.0583 82.0021C82.0265 81.9807 81.9993 81.9533 81.9782 81.9214C81.957 81.8894 81.9424 81.8537 81.9351 81.8161C81.9277 81.7785 81.9279 81.7398 81.9355 81.7023C81.9431 81.6648 81.9581 81.6291 81.9795 81.5974C82.0009 81.5656 82.0283 81.5384 82.0602 81.5173C82.0922 81.4961 82.1279 81.4815 82.1655 81.4741L84.3119 81.0562C84.3878 81.0414 84.4665 81.0574 84.5306 81.1006C84.5948 81.1438 84.6391 81.2107 84.6539 81.2866C84.6687 81.3625 84.6527 81.4412 84.6095 81.5053C84.5662 81.5694 84.4993 81.6138 84.4234 81.6285H84.4234Z" fill="#00BCD4"/>
<path d="M90.0759 75.5217V77.0525H76.2266V75.5217C76.2265 75.3686 76.2567 75.2169 76.3153 75.0754C76.3739 74.9339 76.4598 74.8053 76.5681 74.697C76.6764 74.5887 76.805 74.5028 76.9465 74.4442C77.088 74.3856 77.2397 74.3554 77.3928 74.3555H88.9096C89.0628 74.3554 89.2145 74.3856 89.356 74.4442C89.4975 74.5028 89.6261 74.5887 89.7344 74.697C89.8427 74.8053 89.9286 74.9339 89.9872 75.0754C90.0458 75.2169 90.0759 75.3686 90.0759 75.5217Z" fill="#3F3D56"/>
<path d="M88.5612 76.3206C88.6587 76.1618 88.7899 76.0264 88.9454 75.9239C89.101 75.8213 89.2771 75.7541 89.4614 75.727C89.6457 75.6999 89.8337 75.7135 90.0122 75.7669C90.1907 75.8203 90.3553 75.9122 90.4944 76.0361L93.1166 74.7695L94.275 76.1753L90.5468 77.9119C90.3232 78.1319 90.0266 78.2621 89.7134 78.278C89.4001 78.2939 89.0919 78.1943 88.8471 77.9982C88.6024 77.802 88.4381 77.5229 88.3854 77.2137C88.3327 76.9045 88.3953 76.5867 88.5612 76.3206Z" fill="#FFB8B8"/>
<path d="M92.2064 77.6805C92.0772 77.6805 91.9519 77.637 91.8505 77.5571C91.7491 77.4772 91.6775 77.3655 91.6472 77.24L91.2663 75.6568C91.2373 75.5377 91.2472 75.4124 91.2947 75.2994C91.3421 75.1864 91.4246 75.0916 91.53 75.029L93.827 73.6543L92.6528 69.3552C92.57 69.0496 92.5881 68.7255 92.7043 68.431H92.7043C92.8152 68.1518 93.0093 67.9136 93.2604 67.7487C93.5114 67.5838 93.8072 67.5003 94.1075 67.5095C94.4077 67.5187 94.6978 67.6202 94.9383 67.8002C95.1787 67.9802 95.3579 68.2299 95.4514 68.5153L96.7477 72.4734C96.907 72.9559 96.9082 73.4766 96.7513 73.9599C96.5944 74.4431 96.2875 74.8638 95.8751 75.1606L92.5431 77.5713C92.4451 77.6422 92.3273 77.6805 92.2064 77.6805Z" fill="#2F2E41"/>
<path d="M96.0016 108.836H82.1398C82.1038 108.836 82.0692 108.822 82.0437 108.796C82.0182 108.771 82.0039 108.736 82.0039 108.7C82.0039 108.664 82.0182 108.63 82.0437 108.604C82.0692 108.579 82.1038 108.564 82.1398 108.564H96.0016C96.0377 108.564 96.0722 108.579 96.0977 108.604C96.1232 108.63 96.1375 108.664 96.1375 108.7C96.1375 108.736 96.1232 108.771 96.0977 108.796C96.0722 108.822 96.0377 108.836 96.0016 108.836Z" fill="#CCCCCC"/>
</g>
<defs>
<clipPath id="clip0">
<rect width="120" height="108.837" fill="white"/>
</clipPath>
</defs>
</svg>
