<svg width="31" height="16" viewBox="0 0 31 16" fill="none" xmlns="http://www.w3.org/2000/svg">
<path d="M14.9656 8.22081C15.0429 7.72032 15.0323 7.19875 14.9229 6.67778C14.7988 6.08831 14.5687 5.47602 14.0659 5.09904C13.693 4.82158 13.2593 4.83095 12.8513 4.94685C12.7945 4.96324 12.5943 5.02587 12.5053 5.07036C12.3648 5.14002 12.4491 5.18568 12.5153 5.16929C12.5153 5.16929 12.5475 5.16753 12.6154 5.15524C13.1931 5.0569 13.741 5.27231 13.9184 5.98119C14.1156 6.77027 13.6772 7.61905 13.0327 8.04578C12.0786 8.67973 10.5601 8.36188 9.83428 7.49027C9.44794 7.03134 9.20736 6.38158 9.65106 5.89046C9.7658 5.76461 9.93555 5.6768 10.1076 5.66685C10.3008 5.6528 10.0848 5.99817 10.0462 6.06197C9.93087 6.26158 10.2423 6.48754 10.3875 6.30022C10.7112 5.88636 10.8394 5.2208 10.1504 5.10139C9.47603 4.98548 8.83623 5.55973 8.64891 6.16032C8.32403 7.19115 8.90355 8.08792 9.75116 8.64227C10.5478 9.16676 11.5424 9.27973 12.4497 9.08656C13.7123 8.82432 14.5875 7.6091 14.396 6.33417C14.5406 7.08227 14.4528 7.97495 14.2632 8.56383C13.604 10.6003 10.7615 11.3952 8.97438 10.4124C7.69359 9.70413 7.25925 8.12539 6.94199 6.81183C6.55096 5.205 6.30159 3.6368 5.50842 2.15816C4.97164 1.1607 4.14452 0.458259 3.05456 0.142161C1.92071 -0.184473 0.0820719 -0.0264253 0.000120552 1.45104C-0.00456238 1.54997 0.128317 1.61202 0.202073 1.55465C0.576122 1.28011 1.02217 1.04421 1.4969 1.04363C1.89203 1.04245 2.341 1.25377 2.67642 1.44753C3.19154 1.74314 3.52344 2.21436 3.86003 2.80148C4.03388 3.10236 4.08715 3.24168 4.22998 3.63621C4.36754 4.01436 4.48052 4.40538 4.58764 4.79758C4.79427 5.57787 5.06061 6.35641 5.31466 7.12558C5.81164 8.62354 6.47545 10.1841 7.81886 11.1172C9.5574 12.3336 11.9884 12.031 13.5543 10.7238C14.2392 10.1531 14.6922 9.40442 14.8942 8.58139L14.8983 8.589C14.9773 9.333 14.7274 9.98803 14.2597 10.5722C13.8013 11.1447 13.2206 11.613 12.7412 12.1703C11.732 13.3428 11.4282 14.349 11.876 15.3119C12.2747 16.1636 13.4729 16.2356 13.957 15.4665C14.3621 14.8214 13.9559 14.1728 13.2078 14.2811C13.0784 14.3004 13.0819 14.5006 13.22 14.493C14.1999 14.4193 13.8259 15.6181 13.0632 15.4969C12.1178 15.35 12.596 14.0961 12.8612 13.5945C13.2686 12.8235 14.0308 11.9964 14.5488 11.1043C15.0405 10.3223 15.4661 9.50686 14.9685 8.23076C14.9679 8.22666 14.9668 8.22432 14.9656 8.22081Z" fill="#54565A"/>
<path d="M27.8439 0.142533C26.7534 0.458631 25.9263 1.16107 25.3901 2.15854C24.5975 3.63717 24.3481 5.20537 23.9571 6.8122C23.6398 8.12576 23.2055 9.7045 21.9247 10.4128C20.1376 11.3956 17.2945 10.6007 16.6359 8.5642C16.4457 7.97591 16.3585 7.08264 16.5025 6.33454C16.3111 7.60888 17.1862 8.82411 18.4488 9.08694C19.3561 9.28011 20.3507 9.16772 21.1473 8.64264C21.995 8.0883 22.5751 7.19152 22.2496 6.16069C22.0629 5.5601 21.4225 4.98586 20.7481 5.10176C20.0592 5.22117 20.1879 5.88673 20.5111 6.30059C20.6562 6.48791 20.9676 6.26196 20.8523 6.06235C20.8137 5.99854 20.5977 5.65318 20.7914 5.66723C20.9635 5.67718 21.1327 5.76498 21.248 5.89083C21.6923 6.38196 21.4512 7.03171 21.0648 7.49064C20.3395 8.36225 18.8211 8.6801 17.867 8.04615C17.2225 7.61942 16.7834 6.77064 16.9807 5.98157C17.1581 5.2721 17.706 5.05727 18.2837 5.15561C18.3516 5.1679 18.3838 5.16966 18.3838 5.16966C18.4494 5.18605 18.5343 5.1404 18.3938 5.07074C18.3048 5.02625 18.1052 4.96303 18.0478 4.94722C17.6398 4.83132 17.2061 4.82196 16.8338 5.09942C16.331 5.47581 16.1009 6.08869 15.9768 6.67815C15.8679 7.19913 15.8568 7.72069 15.9341 8.22118C15.9329 8.22411 15.9317 8.22703 15.9306 8.22996C15.433 9.50606 15.858 10.3215 16.3503 11.1035C16.8683 11.9956 17.6305 12.8227 18.0379 13.5937C18.3031 14.0953 18.7813 15.3486 17.8353 15.4961C17.0726 15.6173 16.6986 14.4185 17.6791 14.4922C17.8172 14.5004 17.8207 14.2996 17.6914 14.2803C16.9433 14.1726 16.537 14.8206 16.9421 15.4657C17.4262 16.2354 18.6244 16.1628 19.0225 15.3111C19.4709 14.3482 19.1665 13.342 18.1573 12.1695C17.6779 11.6128 17.0972 11.1439 16.6389 10.5714C16.1717 9.98723 15.9212 9.3322 16.0002 8.5882L16.0043 8.58059C16.2069 9.40362 16.6599 10.1523 17.3448 10.723C18.9107 12.0302 21.3423 12.3328 23.0808 11.1164C24.4242 10.1833 25.088 8.62274 25.585 7.12479C25.8391 6.35503 26.1054 5.57708 26.312 4.79679C26.4192 4.40459 26.5321 4.01356 26.6697 3.63542C26.8119 3.24088 26.8658 3.10098 27.0397 2.80068C27.3768 2.21356 27.7081 1.74234 28.2233 1.44673C28.5593 1.25297 29.0077 1.04166 29.4028 1.04283C29.8775 1.04341 30.3236 1.27932 30.6976 1.55385C30.7708 1.61122 30.9042 1.54917 30.8996 1.45024C30.8164 -0.0266377 28.9778 -0.184687 27.8439 0.142533Z" fill="#54565A"/>
</svg>
