<svg width="27" height="22" viewBox="0 0 27 22" fill="none" xmlns="http://www.w3.org/2000/svg">
<path fill-rule="evenodd" clip-rule="evenodd" d="M19.0172 1.56152C18.619 1.56152 18.2371 1.70823 17.9555 1.96936C17.6739 2.2305 17.5157 2.58467 17.5157 2.95397V5.73887C17.5157 6.10817 17.6739 6.46234 17.9555 6.72348C18.2371 6.98461 18.619 7.13132 19.0172 7.13132C19.4153 7.13132 19.7972 6.98461 20.0788 6.72348C20.3604 6.46234 20.5186 6.10817 20.5186 5.73887V2.95397C20.5186 2.58467 20.3604 2.2305 20.0788 1.96936C19.7972 1.70823 19.4153 1.56152 19.0172 1.56152V1.56152Z" stroke="white" stroke-width="1.14" stroke-linecap="round" stroke-linejoin="round"/>
<path d="M0.999756 4.31348L16.8242 4.31348" stroke="white" stroke-width="1.5" stroke-linecap="round" stroke-linejoin="round"/>
<path d="M21.0669 4.34766L25.0225 4.34766" stroke="white" stroke-width="1.5" stroke-linecap="round" stroke-linejoin="round"/>
<path fill-rule="evenodd" clip-rule="evenodd" d="M19.0172 15.4873C18.619 15.4873 18.2371 15.634 17.9555 15.8951C17.6739 16.1563 17.5157 16.5104 17.5157 16.8797V19.6646C17.5157 20.0339 17.6739 20.3881 17.9555 20.6492C18.2371 20.9103 18.619 21.057 19.0172 21.057C19.4153 21.057 19.7972 20.9103 20.0788 20.6492C20.3604 20.3881 20.5186 20.0339 20.5186 19.6646V16.8797C20.5186 16.5104 20.3604 16.1563 20.0788 15.8951C19.7972 15.634 19.4153 15.4873 19.0172 15.4873Z" stroke="white" stroke-width="1.14" stroke-linecap="round" stroke-linejoin="round"/>
<path d="M0.999756 18.0713L16.8242 18.0713" stroke="white" stroke-width="1.5" stroke-linecap="round" stroke-linejoin="round"/>
<path d="M21.328 18.0713H25.2847" stroke="white" stroke-width="1.5" stroke-linecap="round" stroke-linejoin="round"/>
<path fill-rule="evenodd" clip-rule="evenodd" d="M7.00531 8.52246C6.60708 8.52246 6.22516 8.66916 5.94357 8.9303C5.66198 9.19143 5.50378 9.54561 5.50378 9.91491V12.6998C5.50378 13.0691 5.66198 13.4233 5.94357 13.6844C6.22516 13.9455 6.60708 14.0922 7.00531 14.0922C7.40354 14.0922 7.78546 13.9455 8.06705 13.6844C8.34864 13.4233 8.50684 13.0691 8.50684 12.6998V9.91491C8.50684 9.54561 8.34864 9.19143 8.06705 8.9303C7.78546 8.66916 7.40354 8.52246 7.00531 8.52246V8.52246Z" stroke="white" stroke-width="1.14" stroke-linecap="round" stroke-linejoin="round"/>
<path d="M8.91223 11.6514L24.7363 11.6514" stroke="white" stroke-width="1.5" stroke-linecap="round" stroke-linejoin="round"/>
<path d="M1 11.6514H4.95605" stroke="white" stroke-width="1.5" stroke-linecap="round" stroke-linejoin="round"/>
</svg>
