<svg width="22" height="24" viewBox="0 0 22 24" fill="none" xmlns="http://www.w3.org/2000/svg">
<path d="M14.993 2.385C16.4216 2.77872 17.8405 3.20685 19.2485 3.669C19.3771 3.71065 19.4913 3.78756 19.5783 3.89099C19.6653 3.99442 19.7215 4.1202 19.7405 4.254C20.5715 10.4895 18.6515 15.039 16.361 18.036C15.3912 19.3176 14.2349 20.4466 12.9305 21.3855C12.4115 21.7515 11.9525 22.0155 11.591 22.185C11.411 22.2705 11.264 22.3275 11.1515 22.362C11.1023 22.3793 11.0516 22.3918 11 22.3995C10.949 22.3912 10.8989 22.3787 10.85 22.362C10.736 22.3275 10.589 22.2705 10.409 22.185C10.049 22.0155 9.58849 21.75 9.06949 21.3855C7.76512 20.4466 6.60878 19.3176 5.63899 18.036C3.34849 15.0405 1.42849 10.4895 2.25949 4.254C2.27831 4.12014 2.33444 3.99427 2.42145 3.89082C2.50846 3.78736 2.62284 3.71049 2.75149 3.669C3.72799 3.3495 5.37649 2.829 7.00699 2.3865C8.67199 1.935 10.2035 1.6005 11 1.6005C11.795 1.6005 13.328 1.935 14.993 2.3865V2.385ZM15.392 0.84C13.7645 0.3975 12.035 0 11 0C9.96499 0 8.23549 0.3975 6.60799 0.84C4.94299 1.29 3.26449 1.8225 2.27749 2.145C1.86483 2.28128 1.49898 2.5312 1.22197 2.86605C0.944956 3.20091 0.768023 3.60711 0.711491 4.038C-0.182508 10.7535 1.89199 15.7305 4.40899 19.023C5.47633 20.4315 6.749 21.6718 8.18449 22.7025C8.68086 23.0592 9.20677 23.3728 9.75649 23.64C10.1765 23.838 10.628 24 11 24C11.372 24 11.822 23.838 12.2435 23.64C12.7932 23.3728 13.3191 23.0592 13.8155 22.7025C15.251 21.6717 16.5236 20.4314 17.591 19.023C20.108 15.7305 22.1825 10.7535 21.2885 4.038C21.232 3.60711 21.055 3.20091 20.778 2.86605C20.501 2.5312 20.1352 2.28128 19.7225 2.145C18.2897 1.67521 16.8458 1.24009 15.392 0.84Z" fill="white"/>
<path d="M8.75 9.7498C8.74976 10.2153 8.89389 10.6694 9.16254 11.0495C9.43119 11.4297 9.81113 11.7171 10.25 11.8723L9.6725 14.8573C9.65149 14.9659 9.65475 15.0777 9.68204 15.1849C9.70933 15.2921 9.75998 15.3919 9.83037 15.4772C9.90075 15.5624 9.98912 15.6311 10.0892 15.6783C10.1892 15.7254 10.2984 15.7498 10.409 15.7498H11.591C11.7015 15.7496 11.8105 15.725 11.9104 15.6778C12.0102 15.6305 12.0984 15.5618 12.1686 15.4766C12.2388 15.3913 12.2893 15.2916 12.3166 15.1845C12.3438 15.0775 12.347 14.9657 12.326 14.8573L11.75 11.8723C12.1389 11.7348 12.4824 11.4931 12.7432 11.1735C13.004 10.854 13.1719 10.4689 13.2286 10.0604C13.2853 9.65186 13.2287 9.2356 13.0648 8.8571C12.901 8.4786 12.6362 8.15241 12.2995 7.9142C11.9628 7.67599 11.5671 7.5349 11.1557 7.50637C10.7442 7.47783 10.3328 7.56295 9.96646 7.7524C9.6001 7.94186 9.29287 8.22838 9.07833 8.58064C8.8638 8.9329 8.75022 9.33735 8.75 9.7498Z" fill="white"/>
</svg>
