<svg width="18" height="21" viewBox="0 0 18 21" fill="none" xmlns="http://www.w3.org/2000/svg">
<path d="M8.99805 6.08496C9.7937 6.08496 10.5568 6.40103 11.1194 6.96364C11.682 7.52625 11.998 8.28931 11.998 9.08496C11.998 9.88061 11.682 10.6437 11.1194 11.2063C10.5568 11.7689 9.7937 12.085 8.99805 12.085C8.2024 12.085 7.43934 11.7689 6.87673 11.2063C6.31412 10.6437 5.99805 9.88061 5.99805 9.08496C5.99805 8.28931 6.31412 7.52625 6.87673 6.96364C7.43934 6.40103 8.2024 6.08496 8.99805 6.08496ZM10.748 9.08496C10.748 8.62083 10.5637 8.17571 10.2355 7.84752C9.90729 7.51934 9.46218 7.33496 8.99805 7.33496C8.53392 7.33496 8.0888 7.51934 7.76061 7.84752C7.43242 8.17571 7.24805 8.62083 7.24805 9.08496C7.24805 9.54909 7.43242 9.99421 7.76061 10.3224C8.0888 10.6506 8.53392 10.835 8.99805 10.835C9.46218 10.835 9.90729 10.6506 10.2355 10.3224C10.5637 9.99421 10.748 9.54909 10.748 9.08496Z" fill="#00BCD4"/>
<path d="M2.49999 14.335L7.54399 19.69C7.73098 19.8885 7.9566 20.0467 8.20699 20.1549C8.45738 20.263 8.72724 20.3188 8.99999 20.3188C9.27273 20.3188 9.5426 20.263 9.79299 20.1549C10.0434 20.0467 10.269 19.8885 10.456 19.69L15.5 14.335H15.481L15.4895 14.325L15.5 14.3125C16.7946 12.7813 17.5034 10.8401 17.5 8.83496C17.5 4.14046 13.6945 0.334961 8.99999 0.334961C4.30549 0.334961 0.499987 4.14046 0.499987 8.83496C0.496546 10.8401 1.20534 12.7813 2.49999 14.3125L2.51049 14.325L2.51899 14.335H2.49999ZM3.47149 13.5255C2.35744 12.2168 1.74699 10.5536 1.74999 8.83496C1.74999 4.83096 4.99599 1.58496 8.99999 1.58496C13.004 1.58496 16.25 4.83096 16.25 8.83496C16.25 10.625 15.603 12.261 14.5285 13.5255L14.3745 13.707L9.54599 18.8325C9.47587 18.9069 9.39126 18.9662 9.29736 19.0068C9.20347 19.0474 9.10227 19.0683 8.99999 19.0683C8.89771 19.0683 8.79651 19.0474 8.70261 19.0068C8.60872 18.9662 8.52411 18.9069 8.45399 18.8325L3.62549 13.707L3.47149 13.5255Z" fill="#00BCD4"/>
</svg>
