<svg width="19" height="22" viewBox="0 0 19 22" fill="none" xmlns="http://www.w3.org/2000/svg">
<path fill-rule="evenodd" clip-rule="evenodd" d="M0 2.25C0 1.284 0.784 0.5 1.75 0.5L7.25 0.5C7.44891 0.5 7.63968 0.579018 7.78033 0.71967C7.92098 0.860322 8 1.05109 8 1.25C8 1.44891 7.92098 1.63968 7.78033 1.78033C7.63968 1.92098 7.44891 2 7.25 2L1.75 2C1.6837 2 1.62011 2.02634 1.57322 2.07322C1.52634 2.12011 1.5 2.1837 1.5 2.25L1.5 19.75C1.5 19.888 1.612 20 1.75 20H7.25C7.44891 20 7.63968 20.079 7.78033 20.2197C7.92098 20.3603 8 20.5511 8 20.75C8 20.9489 7.92098 21.1397 7.78033 21.2803C7.63968 21.421 7.44891 21.5 7.25 21.5H1.75C1.28587 21.5 0.840752 21.3156 0.512563 20.9874C0.184375 20.6592 0 20.2141 0 19.75L0 2.25ZM16.006 11.75L12.706 15.234C12.5746 15.3792 12.5052 15.5701 12.5126 15.7658C12.5201 15.9616 12.6038 16.1466 12.7459 16.2814C12.888 16.4162 13.0773 16.4901 13.2731 16.4872C13.469 16.4843 13.6559 16.4049 13.794 16.266L18.294 11.516C18.4261 11.3767 18.4997 11.192 18.4997 11C18.4997 10.808 18.4261 10.6233 18.294 10.484L13.794 5.734C13.6559 5.59508 13.469 5.51569 13.2731 5.51281C13.0773 5.50993 12.888 5.58379 12.7459 5.71858C12.6038 5.85338 12.5201 6.03843 12.5126 6.23416C12.5052 6.42989 12.5746 6.62077 12.706 6.766L16.006 10.25H7.75C7.55109 10.25 7.36032 10.329 7.21967 10.4697C7.07902 10.6103 7 10.8011 7 11C7 11.1989 7.07902 11.3897 7.21967 11.5303C7.36032 11.671 7.55109 11.75 7.75 11.75H16.006Z" fill="white"/>
</svg>
