<svg width="20" height="18" viewBox="0 0 20 18" fill="none" xmlns="http://www.w3.org/2000/svg">
<path d="M9.40439 17.1634L1.91039 9.59859C0.938196 8.6063 0.39538 7.27138 0.399197 5.88221C0.403013 4.49304 0.953156 3.16113 1.93079 2.17419C2.41038 1.68498 2.98246 1.29603 3.61375 1.02995C4.24505 0.763868 4.92295 0.62598 5.60802 0.624305C6.2931 0.62263 6.97166 0.757201 7.60425 1.02019C8.23684 1.28318 8.81082 1.66933 9.29279 2.15619L10.008 2.87979L10.734 2.14779C11.2129 1.65923 11.7842 1.27076 12.4146 1.00498C13.045 0.739204 13.722 0.601414 14.4062 0.599627C15.0903 0.59784 15.768 0.732093 16.3998 0.994577C17.0316 1.25706 17.6049 1.64254 18.0864 2.12859C20.112 4.17459 20.1024 7.49979 18.0672 9.55539L10.5348 17.1634C10.2228 17.479 9.71639 17.479 9.40439 17.1634ZM8.43959 2.99979C8.06913 2.62585 7.62796 2.32936 7.14179 2.12761C6.65561 1.92586 6.13414 1.82288 5.60777 1.82467C5.08139 1.82645 4.56064 1.93297 4.07584 2.13802C3.59104 2.34307 3.1519 2.64254 2.78399 3.01899C2.02892 3.7814 1.60375 4.81003 1.60015 5.88306C1.59656 6.95609 2.01484 7.98754 2.76479 8.75499V8.75739L9.96959 16.0294L17.2152 8.71059C18.7908 7.11939 18.792 4.54659 17.2332 2.97219C16.8632 2.59894 16.4227 2.30301 15.9372 2.10165C15.4518 1.90029 14.9311 1.7975 14.4056 1.79929C13.88 1.80108 13.3601 1.9074 12.876 2.11206C12.3919 2.31672 11.9534 2.61563 11.586 2.99139L10.434 4.15539C10.3782 4.21181 10.3118 4.2566 10.2385 4.28717C10.1653 4.31774 10.0867 4.33348 10.0074 4.33348C9.92804 4.33348 9.84948 4.31774 9.77625 4.28717C9.70302 4.2566 9.63659 4.21181 9.58079 4.15539L8.43959 2.99979Z" fill="white"/>
</svg>
