<svg width="14" height="9" viewBox="0 0 14 9" fill="none" xmlns="http://www.w3.org/2000/svg">
<path d="M0.1 2.2002C0.900001 3.1002 2.4 4.0002 4 4.0002C5.5 4.0002 6.4 3.5002 7.2 3.1002C8 2.8002 8.8 2.3002 10.1 2.3002C11.3 2.3002 12.4 3.0002 13 3.6002L14 2.1002C13.1 1.2002 11.7 0.200195 10.1 0.200195C8.6 0.200195 7.7 0.800196 6.9 1.1002C6.1 1.4002 5.3 2.0002 4 2.0002C2.8 2.0002 1.7 1.2002 1.1 0.600195L0.1 2.2002ZM0 7.1002C0.9 8.0002 2.3 9.0002 3.9 9.0002C5.4 9.0002 6.3 8.5002 7.1 8.1002C7.9 7.8002 8.7 7.2002 10 7.2002C11.2 7.2002 12.3 8.0002 12.9 8.6002L13.9 7.0002C13 6.1002 11.6 5.1002 10 5.1002C8.5 5.1002 7.6 5.6002 6.8 6.0002C6 6.3002 5.2 6.8002 3.9 6.8002C2.7 6.8002 1.6 6.0002 1 5.4002L0 7.1002Z" fill="#727187"/>
</svg>
