<svg width="18" height="20" viewBox="0 0 18 20" fill="none" xmlns="http://www.w3.org/2000/svg">
<path d="M9.00033 9.33334C8.07735 9.33334 7.17509 9.05964 6.40766 8.54686C5.64023 8.03408 5.0421 7.30525 4.68889 6.45253C4.33568 5.5998 4.24326 4.66149 4.42333 3.75625C4.60339 2.851 5.04785 2.01948 5.70049 1.36684C6.35314 0.714192 7.18466 0.269735 8.0899 0.0896708C8.99515 -0.0903936 9.93346 0.00202199 10.7862 0.355231C11.6389 0.70844 12.3677 1.30658 12.8805 2.07401C13.3933 2.84144 13.667 3.74369 13.667 4.66667C13.667 5.90435 13.1753 7.09133 12.3002 7.9665C11.425 8.84167 10.238 9.33334 9.00033 9.33334ZM9.00033 1.33334C8.34105 1.33334 7.69659 1.52883 7.14842 1.8951C6.60026 2.26137 6.17302 2.78197 5.92073 3.39106C5.66843 4.00014 5.60242 4.67037 5.73104 5.31697C5.85966 5.96357 6.17713 6.55752 6.6433 7.02369C7.10948 7.48987 7.70342 7.80734 8.35002 7.93595C8.99663 8.06457 9.66685 7.99856 10.2759 7.74627C10.885 7.49398 11.4056 7.06673 11.7719 6.51857C12.1382 5.97041 12.3337 5.32594 12.3337 4.66667C12.3337 3.78261 11.9825 2.93477 11.3573 2.30965C10.7322 1.68452 9.88438 1.33334 9.00033 1.33334Z" fill="black"/>
<path d="M0.686991 14.2465C1.75612 13.1165 3.04447 12.2165 4.4733 11.6013C5.90212 10.9862 7.44138 10.6689 8.99699 10.6689C10.5526 10.6689 12.0919 10.9862 13.5207 11.6013C14.9495 12.2165 16.2379 13.1165 17.307 14.2465C17.5388 14.4941 17.6675 14.8207 17.667 15.1599V18.6665C17.667 19.0202 17.5265 19.3593 17.2765 19.6093C17.0264 19.8594 16.6873 19.9999 16.3337 19.9999H1.66699C1.31337 19.9999 0.97423 19.8594 0.724182 19.6093C0.474133 19.3593 0.333656 19.0202 0.333656 18.6665V15.1599C0.331322 14.8216 0.457626 14.4951 0.686991 14.2465ZM1.66699 18.6665H16.3337V15.1532C15.3888 14.1583 14.2515 13.3661 12.9908 12.8247C11.73 12.2834 10.3724 12.0042 9.00032 12.0042C7.62829 12.0042 6.27061 12.2834 5.0099 12.8247C3.74918 13.3661 2.61181 14.1583 1.66699 15.1532V18.6665Z" fill="black"/>
</svg>
