<svg width="24" height="24" viewBox="0 0 24 24" fill="none" xmlns="http://www.w3.org/2000/svg">
<g clip-path="url(#clip0)">
<path d="M20.7445 1.0835C20.1925 1.0835 19.7445 1.5315 19.7445 2.0835V2.917C17.5965 1.044 14.857 0 11.9375 0C5.355 0 0 5.3745 0 11.98C0 12.532 0.448 12.98 1 12.98C1.552 12.98 2 12.532 2 11.98C2 6.477 6.458 2 11.9375 2C14.341 2 16.599 2.851 18.379 4.3795H17.4625C16.9105 4.3795 16.4625 4.8275 16.4625 5.3795C16.4625 5.9315 16.9105 6.3795 17.4625 6.3795H20.7445C21.2965 6.3795 21.7445 5.9315 21.7445 5.3795V2.0835C21.7445 1.5315 21.2965 1.0835 20.7445 1.0835Z" fill="#00BCD4"/>
<path d="M22.9989 11.0205C22.4469 11.0205 21.9989 11.4685 21.9989 12.0205C21.9989 17.5235 17.5409 22.0005 12.0614 22.0005C9.68586 22.0005 7.45186 21.1705 5.68186 19.6755H6.64236C7.19436 19.6755 7.64236 19.2275 7.64236 18.6755C7.64236 18.1235 7.19436 17.6755 6.64236 17.6755H3.35986C3.35086 17.6755 3.34286 17.678 3.33436 17.678C3.29636 17.679 3.25886 17.684 3.22086 17.6895C3.19286 17.6935 3.16486 17.696 3.13736 17.7025C3.10436 17.71 3.07186 17.722 3.03936 17.733C3.00936 17.7435 2.97886 17.7525 2.94986 17.7655C2.92236 17.778 2.89636 17.794 2.86986 17.809C2.83836 17.827 2.80736 17.8445 2.77786 17.8655C2.77036 17.871 2.76186 17.874 2.75436 17.88C2.73736 17.893 2.72436 17.909 2.70836 17.923C2.68186 17.946 2.65536 17.969 2.63136 17.995C2.60886 18.019 2.58936 18.044 2.56986 18.0695C2.55036 18.095 2.53136 18.1205 2.51386 18.1475C2.49636 18.1755 2.48136 18.2045 2.46686 18.2335C2.45236 18.262 2.43886 18.291 2.42736 18.321C2.41586 18.352 2.40686 18.383 2.39836 18.415C2.39036 18.4455 2.38186 18.476 2.37686 18.5075C2.37086 18.543 2.36836 18.5785 2.36586 18.6145C2.36436 18.635 2.35986 18.655 2.35986 18.676V21.972C2.35986 22.524 2.80786 22.972 3.35986 22.972C3.91186 22.972 4.35986 22.524 4.35986 21.972V21.177C6.49136 22.9915 9.18986 24.0005 12.0614 24.0005C18.6439 24.0005 23.9989 18.626 23.9989 12.0205C23.9989 11.4685 23.5509 11.0205 22.9989 11.0205Z" fill="#00BCD4"/>
</g>
<defs>
<clipPath id="clip0">
<rect width="24" height="24" fill="white"/>
</clipPath>
</defs>
</svg>
