<svg width="24" height="24" viewBox="0 0 24 24" fill="none" xmlns="http://www.w3.org/2000/svg">
<path d="M8.99963 22C9.55192 22 9.99963 21.5523 9.99963 21C9.99963 20.4477 9.55192 20 8.99963 20C8.44735 20 7.99963 20.4477 7.99963 21C7.99963 21.5523 8.44735 22 8.99963 22Z" stroke="#030028" stroke-width="2" stroke-linecap="round" stroke-linejoin="round"/>
<path d="M20.0004 22C20.5527 22 21.0004 21.5523 21.0004 21C21.0004 20.4477 20.5527 20 20.0004 20C19.4481 20 19.0004 20.4477 19.0004 21C19.0004 21.5523 19.4481 22 20.0004 22Z" stroke="#030028" stroke-width="2" stroke-linecap="round" stroke-linejoin="round"/>
<path d="M1.00037 1H5.00037L7.68037 14.39C7.77181 14.8504 8.02227 15.264 8.38791 15.5583C8.75355 15.8526 9.21106 16.009 9.68037 16H19.4004C19.8697 16.009 20.3272 15.8526 20.6928 15.5583C21.0585 15.264 21.3089 14.8504 21.4004 14.39L23.0004 6H6.00037" stroke="#030028" stroke-width="2" stroke-linecap="round" stroke-linejoin="round"/>
</svg>
