<svg width="24" height="25" viewBox="0 0 24 25" fill="none" xmlns="http://www.w3.org/2000/svg">
<path d="M19.4406 13.3353C19.2206 13.3353 18.9906 13.2653 18.7706 13.2153C18.3251 13.1171 17.8873 12.9868 17.4606 12.8253C16.9967 12.6565 16.4867 12.6653 16.0289 12.8499C15.5711 13.0345 15.1977 13.382 14.9806 13.8253L14.7606 14.2753C13.7866 13.7335 12.8916 13.0605 12.1006 12.2753C11.3154 11.4843 10.6424 10.5893 10.1006 9.61532L10.5206 9.33532C10.964 9.11823 11.3114 8.74485 11.496 8.28701C11.6806 7.82917 11.6894 7.31923 11.5206 6.85532C11.3618 6.42774 11.2315 5.99012 11.1306 5.54532C11.0806 5.32532 11.0406 5.09532 11.0106 4.86532C10.8892 4.16094 10.5202 3.52306 9.97021 3.06656C9.42021 2.61005 8.72529 2.36493 8.01059 2.37532H5.01059C4.57962 2.37127 4.15284 2.46013 3.7593 2.63585C3.36576 2.81156 3.0147 3.07001 2.73002 3.3936C2.44534 3.71719 2.23372 4.09831 2.10958 4.51103C1.98543 4.92375 1.95167 5.35838 2.01059 5.78532C2.54333 9.9747 4.45662 13.8672 7.44824 16.848C10.4399 19.8287 14.3393 21.7278 18.5306 22.2453H18.9106C19.648 22.2464 20.36 21.9758 20.9106 21.4853C21.227 21.2024 21.4797 20.8555 21.6521 20.4676C21.8244 20.0798 21.9126 19.6598 21.9106 19.2353V16.2353C21.8983 15.5407 21.6454 14.8719 21.1949 14.343C20.7445 13.8141 20.1244 13.4579 19.4406 13.3353ZM19.9406 19.3353C19.9404 19.4773 19.91 19.6176 19.8514 19.7469C19.7927 19.8763 19.7073 19.9916 19.6006 20.0853C19.4889 20.1818 19.3582 20.2539 19.217 20.2969C19.0758 20.34 18.9271 20.353 18.7806 20.3353C15.0355 19.8551 11.5568 18.1418 8.89331 15.4656C6.22978 12.7894 4.533 9.30266 4.07059 5.55532C4.05467 5.40884 4.06862 5.26065 4.11159 5.11971C4.15456 4.97877 4.22566 4.84801 4.32059 4.73532C4.4143 4.62865 4.52965 4.54316 4.65897 4.48453C4.78829 4.42591 4.9286 4.3955 5.07059 4.39532H8.07059C8.30314 4.39014 8.53021 4.4662 8.71273 4.61039C8.89525 4.75458 9.0218 4.95789 9.07059 5.18532C9.11059 5.45865 9.16059 5.72865 9.22059 5.99532C9.33611 6.52246 9.48985 7.0405 9.68059 7.54532L8.28059 8.19532C8.16089 8.25024 8.05321 8.32826 7.96375 8.42491C7.87428 8.52156 7.80479 8.63493 7.75926 8.75851C7.71373 8.88209 7.69306 9.01345 7.69844 9.14504C7.70381 9.27663 7.73513 9.40586 7.79059 9.52532C9.22979 12.6081 11.7078 15.0861 14.7906 16.5253C15.0341 16.6253 15.3071 16.6253 15.5506 16.5253C15.6753 16.4807 15.7899 16.4118 15.8878 16.3225C15.9856 16.2332 16.0648 16.1254 16.1206 16.0053L16.7406 14.6053C17.2576 14.7902 17.7852 14.9438 18.3206 15.0653C18.5873 15.1253 18.8573 15.1753 19.1306 15.2153C19.358 15.2641 19.5613 15.3907 19.7055 15.5732C19.8497 15.7557 19.9258 15.9828 19.9206 16.2153L19.9406 19.3353Z" fill="#00BCD4"/>
</svg>
