<svg width="48" height="48" viewBox="0 0 48 48" fill="none" xmlns="http://www.w3.org/2000/svg">
<circle cx="24" cy="24" r="23.5" fill="white" stroke="#EDF1F2"/>
<path d="M32.8401 16.6099C32.3294 16.0989 31.7229 15.6935 31.0555 15.417C30.388 15.1404 29.6726 14.998 28.9501 14.998C28.2276 14.998 27.5122 15.1404 26.8448 15.417C26.1773 15.6935 25.5709 16.0989 25.0601 16.6099L24.0001 17.6699L22.9401 16.6099C21.9084 15.5782 20.5092 14.9986 19.0501 14.9986C17.5911 14.9986 16.1918 15.5782 15.1601 16.6099C14.1284 17.6416 13.5488 19.0408 13.5488 20.4999C13.5488 21.9589 14.1284 23.3582 15.1601 24.3899L16.2201 25.4499L24.0001 33.2299L31.7801 25.4499L32.8401 24.3899C33.3511 23.8791 33.7565 23.2727 34.033 22.6052C34.3096 21.9378 34.4519 21.2224 34.4519 20.4999C34.4519 19.7774 34.3096 19.062 34.033 18.3945C33.7565 17.7271 33.3511 17.1206 32.8401 16.6099V16.6099Z" stroke="#00BCD4" stroke-width="2" stroke-linecap="round" stroke-linejoin="round"/>
</svg>
