<svg width="269" height="42" viewBox="0 0 269 42" fill="none" xmlns="http://www.w3.org/2000/svg">
<path d="M9.44139 41.8376L3.13826 34.2662L1.48368 35.9487V41.8376H0V26.1306H1.48368V34.128L9.33806 26.1306H11.1186L4.11794 33.266L11.2534 41.8376H9.44139Z" fill="#54565A"/>
<path d="M25.635 41.8392L23.51 36.5227L16.7037 36.5245L14.5726 41.8388H13.136L19.5468 26.127H20.884L27.3353 41.8388H25.635V41.8392ZM20.0796 28.0008L17.1829 35.3748L23.0321 35.373L20.0796 28.0008Z" fill="#54565A"/>
<path d="M55.9402 41.8392L53.8151 36.5227L47.0089 36.5245L44.8773 41.8388H43.4412L49.8515 26.127H51.1887L57.6401 41.8388H55.9402V41.8392ZM50.3848 28.0008L47.488 35.3748L53.3373 35.373L50.3848 28.0008Z" fill="#54565A"/>
<path d="M39.5641 41.8401L34.9683 35.3735H34.8271C34.7813 35.3735 32.1292 35.3721 32.0904 35.3721V41.8401H30.6067V26.127C32.3014 26.127 33.9651 26.1326 34.9234 26.1326C38.5147 26.1326 40.5739 27.7606 40.5739 30.6338C40.5739 33.0771 39.1373 34.6571 36.6469 35.1834L41.384 41.8405H39.5641V41.8401ZM32.0908 34.1784C32.1257 34.1784 34.64 34.1775 34.7316 34.1775C37.4618 34.1775 39.0418 32.8848 39.0418 30.7301C39.0418 28.5271 37.5577 27.3778 34.7316 27.3778C34.2054 27.3778 32.8154 27.3739 32.0908 27.3739V34.1784Z" fill="#54565A"/>
<path d="M71.9302 40.5961C70.5743 41.5317 68.9834 42 67.1587 42C62.6676 42 59.3933 38.7248 59.3933 34.0924C59.3933 29.4142 62.7151 26 67.1587 26C68.843 26 70.3402 26.4212 71.7898 27.2626L71.1354 28.4795C69.5916 27.6371 68.4689 27.3568 67.0184 27.3568C63.4633 27.3568 60.9367 30.0691 60.9367 33.9054C60.9367 37.7883 63.6503 40.6419 67.3929 40.6419C68.843 40.6419 70.1527 40.2212 71.3691 39.4255L71.9302 40.5961Z" fill="#54565A"/>
<path d="M86.2048 41.8392L84.0798 36.5227L77.2735 36.5245L75.1424 41.8388H73.7058L80.1162 26.127H81.4534L87.9047 41.8388H86.2048V41.8392ZM80.6494 28.0008L77.7527 35.3748L83.6015 35.373L80.6494 28.0008Z" fill="#54565A"/>
<path d="M119.143 41.6732L112.988 34.2096L111.443 35.8408V41.6732H110V26.373H111.443V34.1644L119.099 26.373H120.916L114.011 33.3231L120.961 41.6732H119.143Z" fill="#54565A"/>
<path d="M134.442 41.6727L132.298 36.3061H125.818L123.669 41.6727H122.268L128.659 26H129.547L135.981 41.6727H134.442ZM129.036 28.1932L126.278 35.1881H131.829L129.036 28.1932Z" fill="#54565A"/>
<path d="M146.897 41.6749L142.467 35.2388H142.186H141.28C140.919 35.2388 140.571 35.2222 140.23 35.1903V41.6749H138.781V26.4693C139.59 26.3465 140.261 26.2782 140.787 26.2592C141.317 26.241 141.812 26.2354 142.283 26.2354C144.052 26.2354 145.412 26.6176 146.36 27.3764C147.31 28.1429 147.783 29.2209 147.783 30.6193C147.783 31.8016 147.448 32.7725 146.778 33.5357C146.109 34.2978 145.173 34.8008 143.958 35.0505L148.671 41.6749H146.897ZM140.23 34.0258C140.57 34.059 140.885 34.0719 141.159 34.0719H142.097C143.429 34.0719 144.467 33.7761 145.195 33.1846C145.926 32.5947 146.294 31.7708 146.294 30.713C146.294 28.5364 144.889 27.4471 142.097 27.4471C141.841 27.4471 141.581 27.456 141.3 27.4713C141.016 27.4855 140.662 27.5243 140.23 27.5873V34.0258Z" fill="#54565A"/>
<path d="M162.381 41.6731L160.237 36.3061H153.755L151.605 41.6727H150.208L156.598 26H157.485L163.921 41.6727H162.381V41.6731ZM156.972 28.1936L154.218 35.1885H159.77L156.972 28.1936Z" fill="#54565A"/>
<path d="M177.842 40.6009C176.474 41.5343 174.885 42.001 173.085 42.001C171.963 42.001 170.93 41.8046 169.986 41.4175C169.034 41.0313 168.214 40.4842 167.533 39.7848C166.851 39.0853 166.311 38.253 165.923 37.2893C165.533 36.3273 165.339 35.2687 165.339 34.1184C165.339 32.9664 165.533 31.8924 165.923 30.8997C166.311 29.9021 166.856 29.0471 167.554 28.3332C168.255 27.618 169.072 27.0584 170.006 26.6559C170.936 26.2499 171.963 26.0479 173.085 26.0479C174.7 26.0479 176.235 26.4673 177.697 27.3085L177.047 28.5219C176.271 28.0831 175.573 27.7897 174.951 27.6374C174.323 27.4798 173.656 27.3998 172.942 27.3998C172.04 27.3998 171.227 27.5618 170.497 27.8879C169.763 28.2168 169.131 28.6693 168.579 29.2439C168.038 29.8197 167.618 30.507 167.322 31.2961C167.026 32.0904 166.88 32.9668 166.88 33.9301C166.88 34.8949 167.041 35.7879 167.367 36.6166C167.695 37.438 168.14 38.1455 168.696 38.7354C169.256 39.3274 169.935 39.7936 170.727 40.1367C171.521 40.4781 172.383 40.6494 173.319 40.6494C174.718 40.6494 176.034 40.2405 177.282 39.434L177.842 40.6009Z" fill="#54565A"/>
<path d="M192.567 41.6731L190.428 36.3061H183.94L181.796 41.6727H180.394L186.788 26H187.675L194.108 41.6727H192.567V41.6731ZM187.157 28.1936L184.408 35.1885H189.957L187.157 28.1936Z" fill="#54565A"/>
<path d="M215.168 41.6732V34.2545H206.26V41.6732H204.815V26.373H206.26V33.0435H215.168V26.373H216.618V41.6732H215.168Z" fill="#54565A"/>
<path d="M227.918 41.9998C226.794 41.9998 225.763 41.7965 224.815 41.3941C223.867 40.9896 223.057 40.4284 222.391 39.7153C221.72 39.0013 221.191 38.1512 220.806 37.1722C220.414 36.1944 220.215 35.1143 220.215 33.9297C220.215 32.7793 220.418 31.724 220.825 30.7595C221.228 29.7946 221.781 28.9631 222.48 28.2633C223.183 27.5618 224.015 27.0192 224.975 26.6321C225.942 26.2406 226.998 26.0479 228.15 26.0479C229.238 26.0479 230.239 26.2495 231.159 26.6559C232.075 27.0584 232.868 27.6107 233.539 28.3113C234.208 29.0099 234.725 29.8601 235.098 30.854C235.47 31.8508 235.66 32.9212 235.66 34.0759C235.66 35.2529 235.47 36.3249 235.098 37.2902C234.725 38.2538 234.201 39.0862 233.515 39.7856C232.833 40.4846 232.013 41.0313 231.066 41.4183C230.112 41.8046 229.064 41.9998 227.918 41.9998ZM228.195 40.6943C229.969 40.6943 231.398 40.0951 232.487 38.8967C233.575 37.7019 234.117 36.154 234.117 34.2549C234.117 33.263 233.963 32.3454 233.654 31.5041C233.343 30.6653 232.908 29.9368 232.348 29.3102C231.786 28.6903 231.124 28.2079 230.364 27.8649C229.603 27.5238 228.774 27.3541 227.87 27.3541C226.065 27.3541 224.602 27.9461 223.484 29.1255C222.367 30.311 221.803 31.85 221.803 33.7458C221.803 34.7402 221.96 35.6647 222.269 36.52C222.586 37.3738 223.025 38.112 223.602 38.735C224.176 39.3557 224.849 39.8401 225.631 40.1815C226.408 40.5222 227.262 40.6943 228.195 40.6943Z" fill="#54565A"/>
<path d="M254.674 41.6731L253.369 29.1722L247.868 41.6731H246.888L241.288 29.3609L239.981 41.6731H238.721L240.401 26.2812H241.38L247.495 39.6695L253.369 26.2812H254.351L256.124 41.6731H254.674Z" fill="#54565A"/>
<path d="M260.364 41.6732V26.373H268.244V27.588H261.805V32.9975H267.591V34.2096H261.805V40.4599H268.244V41.6732H260.364Z" fill="#54565A"/>
<path d="M98.9656 8.22081C99.0429 7.72032 99.0323 7.19875 98.9229 6.67778C98.7988 6.08831 98.5687 5.47602 98.0659 5.09904C97.693 4.82158 97.2593 4.83095 96.8513 4.94685C96.7945 4.96324 96.5943 5.02587 96.5053 5.07036C96.3648 5.14002 96.4491 5.18568 96.5153 5.16929C96.5153 5.16929 96.5475 5.16753 96.6154 5.15524C97.1931 5.0569 97.741 5.27231 97.9184 5.98119C98.1156 6.77027 97.6772 7.61905 97.0327 8.04578C96.0786 8.67973 94.5601 8.36188 93.8343 7.49027C93.4479 7.03134 93.2074 6.38158 93.6511 5.89046C93.7658 5.76461 93.9355 5.6768 94.1076 5.66685C94.3008 5.6528 94.0848 5.99817 94.0462 6.06197C93.9309 6.26158 94.2423 6.48754 94.3875 6.30022C94.7112 5.88636 94.8394 5.2208 94.1504 5.10139C93.476 4.98548 92.8362 5.55973 92.6489 6.16032C92.324 7.19115 92.9035 8.08792 93.7512 8.64227C94.5478 9.16676 95.5424 9.27973 96.4497 9.08656C97.7123 8.82432 98.5875 7.6091 98.396 6.33417C98.5406 7.08227 98.4528 7.97495 98.2632 8.56383C97.604 10.6003 94.7615 11.3952 92.9744 10.4124C91.6936 9.70413 91.2593 8.12539 90.942 6.81183C90.551 5.205 90.3016 3.6368 89.5084 2.15816C88.9716 1.1607 88.1445 0.458259 87.0546 0.142161C85.9207 -0.184473 84.0821 -0.0264253 84.0001 1.45104C83.9954 1.54997 84.1283 1.61202 84.2021 1.55465C84.5761 1.28011 85.0222 1.04421 85.4969 1.04363C85.892 1.04245 86.341 1.25377 86.6764 1.44753C87.1915 1.74314 87.5234 2.21436 87.86 2.80148C88.0339 3.10236 88.0872 3.24168 88.23 3.63621C88.3675 4.01436 88.4805 4.40538 88.5876 4.79758C88.7943 5.57787 89.0606 6.35641 89.3147 7.12558C89.8116 8.62354 90.4754 10.1841 91.8189 11.1172C93.5574 12.3336 95.9884 12.031 97.5543 10.7238C98.2392 10.1531 98.6922 9.40442 98.8942 8.58139L98.8983 8.589C98.9773 9.333 98.7274 9.98803 98.2597 10.5722C97.8013 11.1447 97.2206 11.613 96.7412 12.1703C95.732 13.3428 95.4282 14.349 95.876 15.3119C96.2747 16.1636 97.4729 16.2356 97.957 15.4665C98.3621 14.8214 97.9559 14.1728 97.2078 14.2811C97.0784 14.3004 97.0819 14.5006 97.22 14.493C98.1999 14.4193 97.8259 15.6181 97.0632 15.4969C96.1178 15.35 96.596 14.0961 96.8612 13.5945C97.2686 12.8235 98.0308 11.9964 98.5488 11.1043C99.0405 10.3223 99.4661 9.50686 98.9685 8.23076C98.9679 8.22666 98.9668 8.22432 98.9656 8.22081Z" fill="#54565A"/>
<path d="M111.844 0.142533C110.753 0.458631 109.926 1.16107 109.39 2.15854C108.598 3.63717 108.348 5.20537 107.957 6.8122C107.64 8.12576 107.206 9.7045 105.925 10.4128C104.138 11.3956 101.294 10.6007 100.636 8.5642C100.446 7.97591 100.358 7.08264 100.502 6.33454C100.311 7.60888 101.186 8.82411 102.449 9.08694C103.356 9.28011 104.351 9.16772 105.147 8.64264C105.995 8.0883 106.575 7.19152 106.25 6.16069C106.063 5.5601 105.422 4.98586 104.748 5.10176C104.059 5.22117 104.188 5.88673 104.511 6.30059C104.656 6.48791 104.968 6.26196 104.852 6.06235C104.814 5.99854 104.598 5.65318 104.791 5.66723C104.964 5.67718 105.133 5.76498 105.248 5.89083C105.692 6.38196 105.451 7.03171 105.065 7.49064C104.34 8.36225 102.821 8.6801 101.867 8.04615C101.222 7.61942 100.783 6.77064 100.981 5.98157C101.158 5.2721 101.706 5.05727 102.284 5.15561C102.352 5.1679 102.384 5.16966 102.384 5.16966C102.449 5.18605 102.534 5.1404 102.394 5.07074C102.305 5.02625 102.105 4.96303 102.048 4.94722C101.64 4.83132 101.206 4.82196 100.834 5.09942C100.331 5.47581 100.101 6.08869 99.9768 6.67815C99.8679 7.19913 99.8568 7.72069 99.9341 8.22118C99.9329 8.22411 99.9317 8.22703 99.9306 8.22996C99.433 9.50606 99.858 10.3215 100.35 11.1035C100.868 11.9956 101.63 12.8227 102.038 13.5937C102.303 14.0953 102.781 15.3486 101.835 15.4961C101.073 15.6173 100.699 14.4185 101.679 14.4922C101.817 14.5004 101.821 14.2996 101.691 14.2803C100.943 14.1726 100.537 14.8206 100.942 15.4657C101.426 16.2354 102.624 16.1628 103.022 15.3111C103.471 14.3482 103.166 13.342 102.157 12.1695C101.678 11.6128 101.097 11.1439 100.639 10.5714C100.172 9.98723 99.9212 9.3322 100 8.5882L100.004 8.58059C100.207 9.40362 100.66 10.1523 101.345 10.723C102.911 12.0302 105.342 12.3328 107.081 11.1164C108.424 10.1833 109.088 8.62274 109.585 7.12479C109.839 6.35503 110.105 5.57708 110.312 4.79679C110.419 4.40459 110.532 4.01356 110.67 3.63542C110.812 3.24088 110.866 3.10098 111.04 2.80068C111.377 2.21356 111.708 1.74234 112.223 1.44673C112.559 1.25297 113.008 1.04166 113.403 1.04283C113.878 1.04341 114.324 1.27932 114.698 1.55385C114.771 1.61122 114.904 1.54917 114.9 1.45024C114.816 -0.0266377 112.978 -0.184687 111.844 0.142533Z" fill="#54565A"/>
</svg>
